<?xml version="1.0" encoding="UTF-8" standalone="no"?>
<svg
   width="297mm"
   height="210mm"
   version="1.1"
   viewBox="0 0 297 210"
   id="svg36"
   sodipodi:docname="monogram.svg"
   inkscape:version="1.1.2 (0a00cf5339, 2022-02-04)"
   xmlns:inkscape="http://www.inkscape.org/namespaces/inkscape"
   xmlns:sodipodi="http://sodipodi.sourceforge.net/DTD/sodipodi-0.dtd"
   xmlns="http://www.w3.org/2000/svg"
   xmlns:svg="http://www.w3.org/2000/svg">
  <defs
     id="defs40" />
  <sodipodi:namedview
     id="namedview38"
     pagecolor="#505050"
     bordercolor="#eeeeee"
     borderopacity="1"
     inkscape:pageshadow="0"
     inkscape:pageopacity="0"
     inkscape:pagecheckerboard="0"
     inkscape:document-units="mm"
     showgrid="false"
     inkscape:zoom="1.0440797"
     inkscape:cx="561.25984"
     inkscape:cy="397.00035"
     inkscape:window-width="1143"
     inkscape:window-height="1031"
     inkscape:window-x="8"
     inkscape:window-y="33"
     inkscape:window-maximized="1"
     inkscape:current-layer="svg36" />
  <path
     d="m182.996 49.1847v111.631"
     fill="none"
     stroke-width="0"
     vector-effect="non-scaling-stroke"
     style="stroke:#000000;stroke-opacity:1;stroke-width:1;stroke-miterlimit:4;stroke-dasharray:none"
     id="path2" />
  <path
     d="m182.996 160.815c0 19.0516-15.4444 34.4959-34.4959 34.4959s-34.4959-15.4444-34.4959-34.4959"
     fill="none"
     stroke-width="0"
     vector-effect="non-scaling-stroke"
     style="stroke:#000000;stroke-opacity:1;stroke-width:1;stroke-miterlimit:4;stroke-dasharray:none"
     id="path4" />
  <path
     d="m114.004 49.1847 68.9919 111.631"
     fill="none"
     stroke-width="0"
     vector-effect="non-scaling-stroke"
     style="stroke:#000000;stroke-opacity:1;stroke-width:1;stroke-miterlimit:4;stroke-dasharray:none"
     id="path6" />
  <path
     d="m140.356 91.8191c19.0528 0 34.4981 15.4453 34.4981 34.4981s-15.4453 34.4981-34.4981 34.4981"
     fill="none"
     stroke-width="0"
     vector-effect="non-scaling-stroke"
     style="stroke:#000000;stroke-opacity:1;stroke-width:1;stroke-miterlimit:4;stroke-dasharray:none"
     id="path8" />
  <path
     d="m140.356 49.1875c11.7735 3e-6 21.3178 9.54429 21.3178 21.3178 0 11.7735-9.54428 21.3178-21.3178 21.3178"
     fill="none"
     stroke-width="0"
     vector-effect="non-scaling-stroke"
     style="stroke:#000000;stroke-opacity:1;stroke-width:1;stroke-miterlimit:4;stroke-dasharray:none"
     id="path10" />
  <path
     d="m114.004 49.1847h26.352"
     fill="none"
     stroke-width="0"
     vector-effect="non-scaling-stroke"
     style="stroke:#000000;stroke-opacity:1;stroke-width:1;stroke-miterlimit:4;stroke-dasharray:none"
     id="path12" />
  <path
     d="m114.004 91.823 26.1413-3e-3"
     fill="none"
     stroke-width="0"
     vector-effect="non-scaling-stroke"
     style="stroke:#000000;stroke-opacity:1;stroke-width:1;stroke-miterlimit:4;stroke-dasharray:none"
     id="path14" />
  <path
     d="m114.004 160.815 26.352 2e-5"
     fill="none"
     stroke-width="0"
     vector-effect="non-scaling-stroke"
     style="stroke:#000000;stroke-opacity:1;stroke-width:1;stroke-miterlimit:4;stroke-dasharray:none"
     id="path16" />
  <path
     d="m127.492 125.831 26.1413-3e-3"
     fill="none"
     stroke-width="0"
     vector-effect="non-scaling-stroke"
     style="stroke:#000000;stroke-opacity:1;stroke-width:1;stroke-miterlimit:4;stroke-dasharray:none"
     id="path18" />
  <path
     d="m140.561 112.759 3e-3 26.1413-0.20799 21.9153"
     fill="none"
     stroke-width="0"
     vector-effect="non-scaling-stroke"
     style="stroke:#000000;stroke-opacity:1;stroke-width:1;stroke-miterlimit:4;stroke-dasharray:none"
     id="path20" />
  <path
     d="m114.004 49.1847v111.631"
     fill="none"
     stroke-width="0"
     vector-effect="non-scaling-stroke"
     style="stroke:#000000;stroke-opacity:1;stroke-width:1;stroke-miterlimit:4;stroke-dasharray:none"
     id="path22" />
  <path
     d="m235.085 54.6581c0.39741-0.576402 0.63011-1.27513 0.63011-2.0282 0-1.97576-1.60168-3.57743-3.57743-3.57743-1.97577 0-3.57745 1.60167-3.55863 3.53663-3.45849 0.06771-6.51864 1.83136-8.39275 4.49025l-7.26085 0.0175c-0.16886 0.38871-0.24053 0.78991-0.24053 1.20785 0 1.97576 1.60167 3.57744 3.57743 3.57743 0.62198 0 1.20689-0.15873 1.70384-0.43145l1.89599-1.20662c0.48713-0.26364 1.06514-0.4184 1.67931-0.4184 1.97576 0 3.57743 1.60167 3.57743 3.57743s-1.60167 3.57743-3.57743 3.57743c-0.14565 0-0.28497 0.0107-0.42105-0.0246-2.17167-0.56356-6.58481-1.84424-6.58481-1.84424-0.36044 0.56166-0.56739 1.22351-0.56739 1.93372 0 1.97575 1.60166 3.57743 3.57742 3.57743h6.87398s-22.4146 17.9271-33.804 27.0357c-1.52671 1.22096-2.32774 3.26515-2.32774 5.38296 0 4.08027 3.30771 7.38798 7.38798 7.38798 4.08026 0 7.38797-3.30771 7.38797-7.38798 0-0.76943-0.11761-1.5114-0.33928-2.21646 0 0 13.0599-4.43118 19.4694-6.60508 0.38039-0.12901 0.79603-0.0977 1.20104-0.0977 4.08027 0 7.38798 3.3077 7.38798 7.38798 0 1.24177-0.25915 2.41324-0.84682 3.43606-2.37921 4.1408-4.47665 7.78997-6.7715 11.7828-0.8186 1.42429-1.13109 3.07224-1.13109 4.79677 0 5.92356 4.802 10.7256 10.7256 10.7256 1.17214 0 2.30036-0.18802 3.41968-0.55845-4.9431 5.53112-10.0604 11.2538-14.8341 16.5893-1.19635 1.33714-1.96078 3.07809-1.96078 5.0128 0 4.08027 3.30771 7.38798 7.38798 7.38798s7.38798-3.30771 7.38798-7.38798c0-1.5782-0.49486-3.04083-1.35594-4.2662 0 0 8.30338-7.64581 12.0626-11.1306 1.94542-1.80343 2.94692-4.57291 2.94692-7.39249-1e-5 -5.71585-4.47114-10.3874-10.053-10.6964 0 0 3.0465-3.96127 4.65741-6.05616 1.47863-1.92288 2.46826-4.23469 2.46826-6.8456 0-3.31268-1.45894-6.38961-3.86172-8.24204-13.7756-10.6203-28.4815-21.9437-40.91-31.6165-1.20586-0.93899-2.72312-1.42249-4.35875-1.42249-4.08027 0-7.38797 3.30771-7.38797 7.38798 0 4.08026 3.3077 7.38798 7.38797 7.38798 1.82841 0 3.50169-0.66421 4.77901-1.75643 2.92843 8.63059 11.0982 14.832 20.7165 14.832 12.0931 0 21.8966-9.80343 21.8966-21.8966 0-6.84641-3.14214-12.9589-8.06301-16.9742"
     fill="none"
     stroke="#000"
     stroke-linecap="round"
     stroke-linejoin="round"
     stroke-width="4.83e-6"
     vector-effect="non-scaling-stroke"
     style="stroke:#000000;stroke-opacity:1;stroke-width:1;stroke-miterlimit:4;stroke-dasharray:none"
     id="path24" />
  <path
     d="m251.721 60.0765a3.57743 3.57743 0 0 0 3.57743 3.57743 3.57743 3.57743 0 0 0 3.57743-3.57743 3.57743 3.57743 0 0 0-3.57743-3.57743 3.57743 3.57743 0 0 0-3.57743 3.57743zm-45.527 57.4067c0.21688 0.77911 0.51951 1.52251 0.90593 2.18983l-11.4492-0.11371c-4.00174 0.0344-7.30945 3.34203-7.30945 7.4223s3.30771 7.38798 7.38798 7.38798c3.76919 0 6.87913-2.82258 7.29765-6.3978l6.5202 2.04934c0.60422 0.11066 1.23068 0.19353 1.87651 0.19353 4.08026 0 7.38798-3.30772 7.37702-7.26436l0.0239-18.8438m35.0771-42.9895c-3.41854 1.79306-5.75062 5.37641-5.73048 9.59175 0.0202 8.48202 4.74418 15.7734 11.814 19.4946 3.61576 1.81921 5.99979 5.43616 5.99979 9.60992 0 5.92356-4.802 10.7256-10.7256 10.7256l-37.3952-6.61519c-0.43918-0.0208-0.88463-0.0487-1.33661-0.0487-5.92357 0-10.7256 4.802-10.7256 10.7256 0 0.99865 0.13648 1.96542 0.39181 2.88268"
     fill="none"
     stroke="#000"
     stroke-linecap="round"
     stroke-linejoin="round"
     stroke-width="4.83e-6"
     vector-effect="non-scaling-stroke"
     style="stroke:#000000;stroke-opacity:1;stroke-width:1;stroke-miterlimit:4;stroke-dasharray:none"
     id="path26" />
  <path
     d="m61.9153 54.6581c-0.39741-0.576402-0.630099-1.27513-0.630099-2.0282 0-1.97576 1.60168-3.57743 3.57743-3.57743 1.97577 0 3.57744 1.60167 3.55863 3.53663 3.45849 0.06771 6.51864 1.83136 8.39275 4.49025l7.26085 0.0175c0.16886 0.38871 0.24053 0.78991 0.24053 1.20785 0 1.97576-1.60167 3.57744-3.57743 3.57743-0.62198 0-1.20689-0.15873-1.70384-0.43145l-1.89599-1.20662c-0.48713-0.26364-1.06514-0.4184-1.67931-0.4184-1.97576 0-3.57743 1.60167-3.57743 3.57743s1.60167 3.57743 3.57743 3.57743c0.14565 0 0.28497 0.0107 0.42105-0.0246 2.17167-0.56356 6.58481-1.84424 6.58481-1.84424 0.36044 0.56166 0.56739 1.22351 0.56739 1.93372 0 1.97575-1.60166 3.57743-3.57742 3.57743h-6.87398s22.4146 17.9271 33.804 27.0357c1.52671 1.22096 2.32774 3.26515 2.32774 5.38296 0 4.08027-3.30771 7.38798-7.38798 7.38798-4.08027 0-7.38798-3.30771-7.38798-7.38798 0-0.76943 0.11761-1.5114 0.33928-2.21646 0 0-13.0599-4.43118-19.4694-6.60508-0.38039-0.12901-0.79603-0.0977-1.20104-0.0977-4.08027 0-7.38798 3.3077-7.38798 7.38798 0 1.24177 0.25915 2.41324 0.846819 3.43606 2.37921 4.1408 4.47665 7.78997 6.7715 11.7828 0.818601 1.42429 1.13109 3.07224 1.13109 4.79677 0 5.92356-4.802 10.7256-10.7256 10.7256-1.17214 0-2.30036-0.18802-3.41968-0.55845 4.9431 5.53112 10.0604 11.2538 14.8341 16.5893 1.19635 1.33714 1.96078 3.07809 1.96078 5.0128 0 4.08027-3.30771 7.38798-7.38798 7.38798s-7.38798-3.30771-7.38798-7.38798c0-1.5782 0.49486-3.04083 1.35594-4.2662 0 0-8.30338-7.64581-12.0626-11.1306-1.94542-1.80343-2.94692-4.57291-2.94692-7.39249 1.1e-5 -5.71585 4.47114-10.3874 10.053-10.6964 0 0-3.0465-3.96127-4.65741-6.05616-1.47863-1.92288-2.46826-4.23469-2.46826-6.8456 0-3.31268 1.45894-6.38961 3.86172-8.24204 13.7756-10.6203 28.4815-21.9437 40.91-31.6165 1.20586-0.93899 2.72312-1.42249 4.35876-1.42249 4.08027 0 7.38797 3.30771 7.38797 7.38798 0 4.08026-3.3077 7.38798-7.38797 7.38798-1.82842 0-3.5017-0.66421-4.77902-1.75643-2.92843 8.63059-11.0982 14.832-20.7165 14.832-12.0931 0-21.8966-9.80343-21.8966-21.8966 0-6.84641 3.14214-12.9589 8.06301-16.9742"
     fill="none"
     stroke="#000"
     stroke-linecap="round"
     stroke-linejoin="round"
     stroke-width="4.83e-6"
     vector-effect="non-scaling-stroke"
     style="stroke:#000000;stroke-opacity:1;stroke-width:1;stroke-miterlimit:4;stroke-dasharray:none"
     id="path28" />
  <path
     d="m45.2795 60.0765a3.57743 3.57743 0 0 1-3.57743 3.57743 3.57743 3.57743 0 0 1-3.57743-3.57743 3.57743 3.57743 0 0 1 3.57743-3.57743 3.57743 3.57743 0 0 1 3.57743 3.57743zm45.527 57.4067c-0.216881 0.77911-0.51951 1.52251-0.90593 2.18983l11.4491-0.11371c4.00175 0.0344 7.30945 3.34203 7.30945 7.4223s-3.3077 7.38798-7.38798 7.38798c-3.76919 0-6.87913-2.82258-7.29765-6.3978l-6.5202 2.04934c-0.60422 0.11066-1.23068 0.19353-1.87651 0.19353-4.08027 0-7.38798-3.30772-7.37702-7.26436l-0.0239-18.8438m-35.0771-42.9895c3.41854 1.79306 5.75062 5.37641 5.73048 9.59175-0.0202 8.48202-4.74418 15.7734-11.814 19.4946-3.61576 1.81921-5.99979 5.43616-5.99979 9.60992 0 5.92356 4.802 10.7256 10.7256 10.7256l37.3952-6.61519c0.43918-0.0208 0.88463-0.0487 1.33661-0.0487 5.92357 0 10.7256 4.802 10.7256 10.7256 0 0.99865-0.136481 1.96542-0.391811 2.88268"
     fill="none"
     stroke="#000"
     stroke-linecap="round"
     stroke-linejoin="round"
     stroke-width="4.83e-6"
     vector-effect="non-scaling-stroke"
     style="stroke:#000000;stroke-opacity:1;stroke-width:1;stroke-miterlimit:4;stroke-dasharray:none"
     id="path30" />
  <path
     d="m61.9153 54.6581c-0.39741-0.576402-0.630099-1.27513-0.630099-2.0282 0-1.97576 1.60168-3.57743 3.57743-3.57743 1.97577 0 3.57744 1.60167 3.55863 3.53663 3.45849 0.06771 6.51864 1.83136 8.39275 4.49025l7.26085 0.0175c0.16886 0.38871 0.24053 0.78991 0.24053 1.20785 0 1.97576-1.60167 3.57744-3.57743 3.57743-0.62198 0-1.20689-0.15873-1.70384-0.43145l-1.89599-1.20662c-0.48713-0.26364-1.06514-0.4184-1.67931-0.4184-1.97576 0-3.57743 1.60167-3.57743 3.57743s1.60167 3.57743 3.57743 3.57743c0.14565 0 0.28497 0.0107 0.42105-0.0246 2.17167-0.56356 6.58481-1.84424 6.58481-1.84424 0.36044 0.56166 0.56739 1.22351 0.56739 1.93372 0 1.97575-1.60166 3.57743-3.57742 3.57743h-6.87398s22.4146 17.9271 33.804 27.0357c1.52671 1.22096 2.32774 3.26515 2.32774 5.38296 0 4.08027-3.30771 7.38798-7.38798 7.38798-4.08027 0-7.38798-3.30771-7.38798-7.38798 0-0.76943 0.11761-1.5114 0.33928-2.21646 0 0-13.0599-4.43118-19.4694-6.60508-0.38039-0.12901-0.79603-0.0977-1.20104-0.0977-4.08027 0-7.38798 3.3077-7.38798 7.38798 0 1.24177 0.25915 2.41324 0.846819 3.43606 2.37921 4.1408 4.47665 7.78997 6.7715 11.7828 0.818601 1.42429 1.13109 3.07224 1.13109 4.79677 0 5.92356-4.802 10.7256-10.7256 10.7256-1.17214 0-2.30036-0.18802-3.41968-0.55845 4.9431 5.53112 10.0604 11.2538 14.8341 16.5893 1.19635 1.33714 1.96078 3.07809 1.96078 5.0128 0 4.08027-3.30771 7.38798-7.38798 7.38798s-7.38798-3.30771-7.38798-7.38798c0-1.5782 0.49486-3.04083 1.35594-4.2662 0 0-8.30338-7.64581-12.0626-11.1306-1.94542-1.80343-2.94692-4.57291-2.94692-7.39249 1.1e-5 -5.71585 4.47114-10.3874 10.053-10.6964 0 0-3.0465-3.96127-4.65741-6.05616-1.47863-1.92288-2.46826-4.23469-2.46826-6.8456 0-3.31268 1.45894-6.38961 3.86172-8.24204 13.7756-10.6203 28.4815-21.9437 40.91-31.6165 1.20586-0.93899 2.72312-1.42249 4.35876-1.42249 4.08027 0 7.38797 3.30771 7.38797 7.38798 0 4.08026-3.3077 7.38798-7.38797 7.38798-1.82842 0-3.5017-0.66421-4.77902-1.75643-2.92843 8.63059-11.0982 14.832-20.7165 14.832-12.0931 0-21.8966-9.80343-21.8966-21.8966 0-6.84641 3.14214-12.9589 8.06301-16.9742"
     fill="none"
     stroke="#000"
     stroke-linecap="round"
     stroke-linejoin="round"
     stroke-width="4.83e-6"
     vector-effect="non-scaling-stroke"
     style="stroke:#000000;stroke-opacity:1;stroke-width:1;stroke-miterlimit:4;stroke-dasharray:none"
     id="path32" />
  <path
     d="m45.2795 60.0765a3.57743 3.57743 0 0 1-3.57743 3.57743 3.57743 3.57743 0 0 1-3.57743-3.57743 3.57743 3.57743 0 0 1 3.57743-3.57743 3.57743 3.57743 0 0 1 3.57743 3.57743zm45.527 57.4067c-0.216881 0.77911-0.51951 1.52251-0.90593 2.18983l11.4491-0.11371c4.00175 0.0344 7.30945 3.34203 7.30945 7.4223s-3.3077 7.38798-7.38798 7.38798c-3.76919 0-6.87913-2.82258-7.29765-6.3978l-6.5202 2.04934c-0.60422 0.11066-1.23068 0.19353-1.87651 0.19353-4.08027 0-7.38798-3.30772-7.37702-7.26436l-0.0239-18.8438m-35.0771-42.9895c3.41854 1.79306 5.75062 5.37641 5.73048 9.59175-0.0202 8.48202-4.74418 15.7734-11.814 19.4946-3.61576 1.81921-5.99979 5.43616-5.99979 9.60992 0 5.92356 4.802 10.7256 10.7256 10.7256l37.3952-6.61519c0.43918-0.0208 0.88463-0.0487 1.33661-0.0487 5.92357 0 10.7256 4.802 10.7256 10.7256 0 0.99865-0.136481 1.96542-0.391811 2.88268"
     fill="none"
     stroke="#000"
     stroke-linecap="round"
     stroke-linejoin="round"
     stroke-width="4.83e-6"
     vector-effect="non-scaling-stroke"
     style="stroke:#000000;stroke-opacity:1;stroke-width:1;stroke-miterlimit:4;stroke-dasharray:none"
     id="path34" />
</svg>
